<svg width="1248" height="480" viewBox="0 0 1248 480" fill="none" xmlns="http://www.w3.org/2000/svg">
<rect width="1248" height="480" fill="white"/>
<path d="M419.16 259.14V264H396.36V223.2H418.56V228.12H401.58V240.9H416.76V245.82H401.58V259.14H419.16ZM430.095 256.8V219.6H435.015V256.56C435.015 257.64 435.175 258.46 435.495 259.02C435.855 259.54 436.555 259.8 437.595 259.8H438.555V264.3H437.175C434.535 264.3 432.695 263.6 431.655 262.2C430.615 260.8 430.095 259 430.095 256.8ZM470.515 262.26C468.715 263.14 466.915 263.74 465.115 264.06C463.315 264.42 461.655 264.6 460.135 264.6C455.855 264.6 452.655 263.38 450.535 260.94C448.455 258.5 447.415 255.16 447.415 250.92V247.32C447.415 243.2 448.455 239.9 450.535 237.42C452.655 234.94 455.635 233.7 459.475 233.7C461.515 233.7 463.375 234.12 465.055 234.96C466.775 235.76 468.135 237 469.135 238.68C470.175 240.32 470.695 242.44 470.695 245.04C470.695 246.72 470.455 248.64 469.975 250.8H452.275V250.92C452.275 253.96 452.895 256.26 454.135 257.82C455.415 259.38 457.455 260.16 460.255 260.16C461.535 260.16 462.935 260 464.455 259.68C466.015 259.36 467.535 258.86 469.015 258.18L470.515 262.26ZM459.475 238.02C457.155 238.02 455.395 238.78 454.195 240.3C453.035 241.78 452.395 243.88 452.275 246.6H465.715C465.835 245.88 465.895 245.2 465.895 244.56C465.895 242.32 465.255 240.68 463.975 239.64C462.735 238.56 461.235 238.02 459.475 238.02ZM496.49 238.32C495.37 238.32 494.05 238.6 492.53 239.16C491.05 239.72 489.25 240.86 487.13 242.58V264H482.21V234.3H486.89V238.44C489.01 236.64 490.93 235.4 492.65 234.72C494.41 234.04 496.09 233.7 497.69 233.7C500.45 233.7 502.55 234.58 503.99 236.34C505.47 238.06 506.21 240.52 506.21 243.72V264H501.29V244.44C501.29 240.36 499.69 238.32 496.49 238.32ZM541.207 264.3C539.367 264.3 537.887 263.88 536.767 263.04C535.687 262.2 534.927 261.16 534.487 259.92C532.527 261.64 530.747 262.86 529.147 263.58C527.547 264.26 525.947 264.6 524.347 264.6C521.747 264.6 519.827 263.76 518.587 262.08C517.347 260.4 516.727 258.34 516.727 255.9C516.727 254.26 517.027 252.8 517.627 251.52C518.227 250.24 519.247 249.24 520.687 248.52C522.127 247.76 524.067 247.38 526.507 247.38C527.587 247.38 528.767 247.46 530.047 247.62C531.327 247.74 532.627 247.9 533.947 248.1V244.08C533.947 241.84 533.447 240.32 532.447 239.52C531.487 238.68 530.067 238.26 528.187 238.26C525.627 238.26 522.767 238.96 519.607 240.36L518.047 236.28C519.887 235.44 521.647 234.8 523.327 234.36C525.007 233.92 526.707 233.7 528.427 233.7C531.227 233.7 533.367 234.16 534.847 235.08C536.327 236 537.347 237.22 537.907 238.74C538.467 240.26 538.747 241.92 538.747 243.72V256.56C538.747 257.48 538.927 258.26 539.287 258.9C539.647 259.5 540.367 259.8 541.447 259.8H542.107V264.3H541.207ZM521.587 255.84C521.587 257.2 521.907 258.3 522.547 259.14C523.187 259.98 524.107 260.4 525.307 260.4C526.347 260.4 527.547 260.1 528.907 259.5C530.267 258.86 531.947 257.6 533.947 255.72V251.94C531.227 251.5 528.827 251.28 526.747 251.28C524.907 251.28 523.587 251.66 522.787 252.42C521.987 253.18 521.587 254.32 521.587 255.84ZM569.223 264V223.2H574.683C578.323 228.4 581.663 233.64 584.703 238.92C587.783 244.16 590.663 249.64 593.343 255.36L592.743 239.76V223.2H597.843V264H592.383C589.583 258.16 586.683 252.48 583.683 246.96C580.723 241.4 577.483 235.98 573.963 230.7L574.323 247.32V264H569.223ZM617.789 227.04H612.269V221.52H617.789V227.04ZM617.489 264H612.569V234.3H617.489V264ZM649.396 264L641.056 250.26C640.296 251.02 639.496 251.8 638.656 252.6C637.816 253.4 636.936 254.2 636.016 255V264H631.096V219.6H636.016V249.48C638.616 246.96 640.916 244.5 642.916 242.1C644.956 239.7 646.816 237.1 648.496 234.3H654.136C652.696 236.7 651.216 238.92 649.696 240.96C648.216 242.96 646.536 245 644.656 247.08L655.336 264H649.396ZM687.382 247.32V250.92C687.382 255.16 686.282 258.5 684.082 260.94C681.922 263.38 678.822 264.6 674.782 264.6C670.782 264.6 667.682 263.38 665.482 260.94C663.282 258.5 662.182 255.16 662.182 250.92V247.32C662.182 243.16 663.262 239.86 665.422 237.42C667.622 234.94 670.742 233.7 674.782 233.7C678.822 233.7 681.922 234.94 684.082 237.42C686.282 239.86 687.382 243.16 687.382 247.32ZM682.282 247.32C682.282 244.48 681.642 242.26 680.362 240.66C679.082 239.02 677.222 238.2 674.782 238.2C672.382 238.2 670.522 239.02 669.202 240.66C667.922 242.26 667.282 244.48 667.282 247.32V250.92C667.282 253.88 667.922 256.16 669.202 257.76C670.522 259.36 672.382 260.16 674.782 260.16C677.222 260.16 679.082 259.36 680.362 257.76C681.642 256.16 682.282 253.88 682.282 250.92V247.32ZM699.263 256.8V219.6H704.183V256.56C704.183 257.64 704.343 258.46 704.663 259.02C705.023 259.54 705.723 259.8 706.763 259.8H707.723V264.3H706.343C703.703 264.3 701.863 263.6 700.823 262.2C699.783 260.8 699.263 259 699.263 256.8ZM741.663 247.32V250.92C741.663 255.16 740.563 258.5 738.363 260.94C736.203 263.38 733.103 264.6 729.063 264.6C725.063 264.6 721.963 263.38 719.763 260.94C717.563 258.5 716.463 255.16 716.463 250.92V247.32C716.463 243.16 717.543 239.86 719.703 237.42C721.903 234.94 725.023 233.7 729.063 233.7C733.103 233.7 736.203 234.94 738.363 237.42C740.563 239.86 741.663 243.16 741.663 247.32ZM736.563 247.32C736.563 244.48 735.923 242.26 734.643 240.66C733.363 239.02 731.503 238.2 729.063 238.2C726.663 238.2 724.803 239.02 723.483 240.66C722.203 242.26 721.563 244.48 721.563 247.32V250.92C721.563 253.88 722.203 256.16 723.483 257.76C724.803 259.36 726.663 260.16 729.063 260.16C731.503 260.16 733.363 259.36 734.643 257.76C735.923 256.16 736.563 253.88 736.563 250.92V247.32ZM774.738 234.3L764.238 264H759.618L748.998 234.3H754.098L759.078 248.76L762.078 257.82L765.018 248.76L769.878 234.3H774.738ZM806.039 264.3C804.199 264.3 802.719 263.88 801.599 263.04C800.519 262.2 799.759 261.16 799.319 259.92C797.359 261.64 795.579 262.86 793.979 263.58C792.379 264.26 790.779 264.6 789.179 264.6C786.579 264.6 784.659 263.76 783.419 262.08C782.179 260.4 781.559 258.34 781.559 255.9C781.559 254.26 781.859 252.8 782.459 251.52C783.059 250.24 784.079 249.24 785.519 248.52C786.959 247.76 788.899 247.38 791.339 247.38C792.419 247.38 793.599 247.46 794.879 247.62C796.159 247.74 797.459 247.9 798.779 248.1V244.08C798.779 241.84 798.279 240.32 797.279 239.52C796.319 238.68 794.899 238.26 793.019 238.26C790.459 238.26 787.599 238.96 784.439 240.36L782.879 236.28C784.719 235.44 786.479 234.8 788.159 234.36C789.839 233.92 791.539 233.7 793.259 233.7C796.059 233.7 798.199 234.16 799.679 235.08C801.159 236 802.179 237.22 802.739 238.74C803.299 240.26 803.579 241.92 803.579 243.72V256.56C803.579 257.48 803.759 258.26 804.119 258.9C804.479 259.5 805.199 259.8 806.279 259.8H806.939V264.3H806.039ZM786.419 255.84C786.419 257.2 786.739 258.3 787.379 259.14C788.019 259.98 788.939 260.4 790.139 260.4C791.179 260.4 792.379 260.1 793.739 259.5C795.099 258.86 796.779 257.6 798.779 255.72V251.94C796.059 251.5 793.659 251.28 791.579 251.28C789.739 251.28 788.419 251.66 787.619 252.42C786.819 253.18 786.419 254.32 786.419 255.84Z" fill="black"/>
</svg>
